<?xml version="1.0" encoding="utf-8"?>
<!-- Generator: Adobe Illustrator 21.0.2, SVG Export Plug-In . SVG Version: 6.00 Build 0)  -->
<svg version="1.1" id="logo-letters" xmlns="http://www.w3.org/2000/svg" xmlns:xlink="http://www.w3.org/1999/xlink" x="0px"
	 y="0px" viewBox="0 0 335.3 56.7" style="enable-background:new 0 0 335.3 56.7;" xml:space="preserve">
<style type="text/css">
	.st0{fill:#FFFFFF;}
</style>
<g>
	<g>
		<path class="st0" d="M0,0.3h3.9v17.9H0V0.3z"/>
		<path class="st0" d="M9.7,0.3h3.6l8.4,11v-11h3.9v17.9h-3.4L13.5,6.8v11.4H9.7V0.3z"/>
		<path class="st0" d="M37.7,18.5c-1.4,0-2.7-0.2-4-0.7s-2.5-1.2-3.6-2.2l2.3-2.8c0.8,0.7,1.7,1.2,2.5,1.6c0.9,0.4,1.8,0.6,2.8,0.6
			c0.8,0,1.5-0.2,1.9-0.4c0.5-0.3,0.7-0.7,0.7-1.2v-0.1c0-0.3,0-0.5-0.1-0.7s-0.3-0.4-0.5-0.6c-0.3-0.2-0.6-0.3-1.1-0.5
			s-1.1-0.4-1.8-0.5c-0.9-0.2-1.7-0.5-2.5-0.7c-0.7-0.3-1.4-0.6-1.9-1s-0.9-0.9-1.2-1.5c-0.3-0.6-0.4-1.3-0.4-2.2V5.5
			c0-0.8,0.2-1.6,0.5-2.2c0.3-0.7,0.7-1.2,1.3-1.7c0.6-0.5,1.2-0.8,2-1.1c0.8-0.3,1.6-0.4,2.5-0.4c1.3,0,2.5,0.2,3.6,0.6
			s2.1,1,3,1.7l-2.1,3c-0.8-0.5-1.6-1-2.4-1.3c-0.8-0.3-1.5-0.5-2.3-0.5S35.6,3.7,35.2,4s-0.6,0.7-0.6,1.1v0.1
			c0,0.3,0.1,0.5,0.2,0.8c0.1,0.2,0.3,0.4,0.6,0.6s0.7,0.3,1.2,0.5s1.1,0.3,1.9,0.5c0.9,0.2,1.7,0.5,2.4,0.8s1.3,0.7,1.8,1.1
			s0.9,0.9,1.1,1.5c0.2,0.6,0.4,1.2,0.4,2v-0.1c0,0.9-0.2,1.7-0.5,2.4c-0.3,0.7-0.8,1.3-1.3,1.7c-0.6,0.5-1.3,0.8-2.1,1.1
			C39.5,18.4,38.6,18.5,37.7,18.5z"/>
		<path class="st0" d="M53.1,3.9h-5.5V0.3h14.9v3.6H57v14.3h-3.9V3.9z"/>
		<path class="st0" d="M67,0.3h3.9v17.9H67V0.3z"/>
		<path class="st0" d="M80.9,3.9h-5.5V0.3h14.9v3.6h-5.5v14.3h-3.9V3.9z"/>
		<path class="st0" d="M102.1,18.5c-2.4,0-4.3-0.7-5.7-2c-1.4-1.3-2.1-3.3-2.1-6V0.3h3.9v10.1c0,1.5,0.3,2.6,1,3.3
			c0.7,0.7,1.6,1.1,2.8,1.1c1.2,0,2.2-0.4,2.8-1.1c0.7-0.7,1-1.8,1-3.2V0.3h3.9v10.1c0,1.4-0.2,2.6-0.6,3.6s-0.9,1.9-1.6,2.5
			c-0.7,0.7-1.5,1.2-2.5,1.5C104.4,18.3,103.3,18.5,102.1,18.5z"/>
		<path class="st0" d="M119.4,3.9H114V0.3h14.9v3.6h-5.5v14.3h-3.9L119.4,3.9L119.4,3.9z"/>
		<path class="st0" d="M141.9,18.5c-1.4,0-2.7-0.2-3.8-0.7c-1.2-0.5-2.2-1.1-3-2c-0.8-0.8-1.5-1.8-2-2.9s-0.7-2.3-0.7-3.6V9.2
			c0-1.3,0.2-2.5,0.7-3.6s1.1-2.1,2-2.9c0.8-0.8,1.9-1.5,3-2c1.2-0.5,2.4-0.7,3.8-0.7c1.4,0,2.7,0.2,3.8,0.7c1.2,0.5,2.2,1.1,3,2
			c0.8,0.8,1.5,1.8,2,2.9s0.7,2.3,0.7,3.6v0.1c0,1.3-0.2,2.5-0.7,3.6s-1.1,2.1-2,2.9c-0.8,0.8-1.9,1.5-3,2
			C144.5,18.3,143.2,18.5,141.9,18.5z M141.9,14.9c0.8,0,1.5-0.1,2.2-0.4s1.2-0.7,1.7-1.2s0.8-1.1,1.1-1.8c0.3-0.7,0.4-1.4,0.4-2.2
			V9.2c0-0.8-0.1-1.5-0.4-2.2c-0.3-0.7-0.6-1.3-1.1-1.8s-1.1-0.9-1.7-1.2c-0.7-0.3-1.4-0.4-2.2-0.4s-1.5,0.1-2.2,0.4
			s-1.2,0.7-1.7,1.2s-0.8,1.1-1.1,1.8c-0.3,0.7-0.4,1.4-0.4,2.2v0.1c0,0.8,0.1,1.5,0.4,2.2c0.3,0.7,0.6,1.3,1.1,1.8s1.1,0.9,1.7,1.2
			C140.4,14.7,141.1,14.9,141.9,14.9z"/>
		<path class="st0" d="M165.2,0.3h4.3l4.7,7.6l4.7-7.6h4.3v17.9h-3.9V6.5l-5,7.7h-0.1l-5-7.6v11.6h-3.9V0.3H165.2z"/>
		<path class="st0" d="M188.9,0.3h3.9v17.9h-3.9V0.3z"/>
		<path class="st0" d="M198.6,0.3h3.6l8.4,11v-11h3.9v17.9h-3.4l-8.7-11.4v11.4h-3.9L198.6,0.3L198.6,0.3z"/>
		<path class="st0" d="M220.1,0.3h13.6v3.5H224v3.6h8.5v3.5H224v3.8h9.7v3.5h-13.6L220.1,0.3L220.1,0.3z"/>
		<path class="st0" d="M238.8,0.3h3.9v17.9h-3.9V0.3z"/>
		<path class="st0" d="M248.5,0.3h8.2c2.3,0,4,0.6,5.2,1.8c1,1,1.5,2.4,1.5,4.1v0.1c0,1.5-0.4,2.6-1.1,3.5s-1.6,1.6-2.8,2l4.4,6.4
			h-4.6l-3.8-5.7h-0.1h-3v5.7h-3.9L248.5,0.3L248.5,0.3z M256.4,9c1,0,1.7-0.2,2.2-0.7s0.8-1.1,0.8-1.8V6.4c0-0.9-0.3-1.5-0.8-1.9
			s-1.3-0.6-2.3-0.6h-3.9v5.2L256.4,9L256.4,9z"/>
		<path class="st0" d="M277,18.5c-1.4,0-2.7-0.2-3.8-0.7c-1.2-0.5-2.2-1.1-3-2c-0.8-0.8-1.5-1.8-2-2.9s-0.7-2.3-0.7-3.6V9.2
			c0-1.3,0.2-2.5,0.7-3.6s1.1-2.1,2-2.9c0.8-0.8,1.9-1.5,3-2c1.2-0.5,2.4-0.7,3.8-0.7s2.7,0.2,3.8,0.7c1.2,0.5,2.2,1.1,3,2
			c0.8,0.8,1.5,1.8,2,2.9s0.7,2.3,0.7,3.6v0.1c0,1.3-0.2,2.5-0.7,3.6s-1.1,2.1-2,2.9c-0.8,0.8-1.9,1.5-3,2
			C279.7,18.3,278.4,18.5,277,18.5z M277.1,14.9c0.8,0,1.5-0.1,2.2-0.4s1.2-0.7,1.7-1.2s0.8-1.1,1.1-1.8c0.3-0.7,0.4-1.4,0.4-2.2
			V9.2c0-0.8-0.1-1.5-0.4-2.2s-0.6-1.3-1.1-1.8s-1.1-0.9-1.7-1.2c-0.7-0.3-1.4-0.4-2.2-0.4c-0.8,0-1.5,0.1-2.2,0.4s-1.2,0.7-1.7,1.2
			s-0.8,1.1-1.1,1.8c-0.3,0.7-0.4,1.4-0.4,2.2v0.1c0,0.8,0.1,1.5,0.4,2.2s0.6,1.3,1.1,1.8s1.1,0.9,1.7,1.2
			C275.5,14.7,276.3,14.9,277.1,14.9z"/>
		<path class="st0" d="M300.3,0.3h7c1.4,0,2.7,0.2,3.9,0.7c1.2,0.5,2.2,1.1,3,1.9s1.5,1.7,2,2.8c0.5,1.1,0.7,2.3,0.7,3.5v0.1
			c0,1.3-0.2,2.4-0.7,3.5s-1.1,2-2,2.8c-0.8,0.8-1.9,1.4-3,1.9c-1.2,0.5-2.5,0.7-3.9,0.7h-7V0.3z M307.3,14.7c0.8,0,1.5-0.1,2.2-0.4
			s1.2-0.6,1.7-1.1s0.8-1,1.1-1.7c0.3-0.6,0.4-1.4,0.4-2.2V9.2c0-0.8-0.1-1.5-0.4-2.2s-0.6-1.2-1.1-1.7s-1-0.8-1.7-1.1
			c-0.7-0.3-1.4-0.4-2.2-0.4h-3v10.8L307.3,14.7L307.3,14.7z"/>
		<path class="st0" d="M321.7,0.3h13.6v3.5h-9.7v3.6h8.5v3.5h-8.5v3.8h9.7v3.5h-13.6V0.3z"/>
	</g>
	<g>
		<path class="st0" d="M0,25.1h6.4l14.8,19.5V25.1h6.9v31.6h-5.9L6.9,36.6v20.1H0V25.1z"/>
		<path class="st0" d="M81.7,31.5h-9.6v-6.4h26.2v6.4h-9.6v25.2h-6.9V31.5C81.8,31.5,81.7,31.5,81.7,31.5z"/>
		<path class="st0" d="M105.8,25.1h14.4c4,0,7.1,1.1,9.2,3.2c1.8,1.8,2.7,4.2,2.7,7.2v0.1c0,2.6-0.6,4.6-1.9,6.2
			c-1.2,1.6-2.9,2.8-4.9,3.5l7.7,11.3h-8l-6.8-10.1h-0.1h-5.4v10.1h-7L105.8,25.1L105.8,25.1z M119.8,40.4c1.7,0,3-0.4,4-1.2
			c0.9-0.8,1.4-1.9,1.4-3.3l0,0c0-1.5-0.5-2.6-1.4-3.4c-1-0.8-2.3-1.1-4-1.1h-6.9v9.1L119.8,40.4L119.8,40.4z"/>
		<path class="st0" d="M156.1,56.7c-2.4,0-4.5-0.4-6.5-1.2s-3.7-1.9-5.1-3.4c-1.4-1.4-2.6-3.1-3.4-5c-0.8-1.9-1.2-3.9-1.2-6.1v-0.1
			c0-2.2,0.4-4.2,1.2-6.1s1.9-3.6,3.4-5c1.4-1.4,3.2-2.6,5.1-3.4c2-0.8,4.2-1.2,6.5-1.2c2.4,0,4.5,0.4,6.5,1.2
			c2,0.8,3.7,1.9,5.1,3.4c1.4,1.4,2.6,3.1,3.4,5c0.8,1.9,1.2,3.9,1.2,6.1V41c0,2.2-0.4,4.2-1.2,6.1s-1.9,3.6-3.4,5
			c-1.4,1.4-3.2,2.6-5.1,3.4C160.6,56.3,158.4,56.7,156.1,56.7z M156.2,50.5c1.3,0,2.6-0.2,3.7-0.7c1.1-0.5,2.1-1.2,2.9-2.1
			c0.8-0.9,1.4-1.9,1.9-3c0.5-1.1,0.7-2.4,0.7-3.7v-0.1c0-1.3-0.2-2.5-0.7-3.7s-1.1-2.2-1.9-3.1c-0.8-0.9-1.8-1.6-2.9-2.1
			c-1.1-0.5-2.4-0.8-3.7-0.8c-1.4,0-2.6,0.2-3.7,0.7c-1.1,0.5-2.1,1.2-2.9,2c-0.8,0.9-1.4,1.9-1.9,3c-0.5,1.2-0.7,2.4-0.7,3.7v0.1
			c0,1.3,0.2,2.5,0.7,3.7c0.5,1.2,1.1,2.2,1.9,3.1c0.8,0.9,1.8,1.6,2.9,2.1C153.5,50.2,154.8,50.5,156.2,50.5z"/>
		<path class="st0" d="M181.4,25.1h7v25.3h15.7v6.3h-22.7V25.1z"/>
		<path class="st0" d="M226.9,56.7c-2.4,0-4.5-0.4-6.5-1.2s-3.7-1.9-5.1-3.4c-1.4-1.4-2.6-3.1-3.4-5c-0.8-1.9-1.2-3.9-1.2-6.1v-0.1
			c0-2.2,0.4-4.2,1.2-6.1s1.9-3.6,3.4-5c1.4-1.4,3.2-2.6,5.1-3.4c2-0.8,4.2-1.2,6.5-1.2c2.4,0,4.5,0.4,6.5,1.2
			c2,0.8,3.7,1.9,5.1,3.4c1.4,1.4,2.6,3.1,3.4,5c0.8,1.9,1.2,3.9,1.2,6.1V41c0,2.2-0.4,4.2-1.2,6.1s-1.9,3.6-3.4,5
			c-1.4,1.4-3.2,2.6-5.1,3.4C231.4,56.3,229.3,56.7,226.9,56.7z M227,50.5c1.3,0,2.6-0.2,3.7-0.7c1.1-0.5,2.1-1.2,2.9-2.1
			c0.8-0.9,1.4-1.9,1.9-3c0.5-1.1,0.7-2.4,0.7-3.7v-0.1c0-1.3-0.2-2.5-0.7-3.7s-1.1-2.2-1.9-3.1c-0.8-0.9-1.8-1.6-2.9-2.1
			c-1.1-0.5-2.4-0.8-3.7-0.8c-1.4,0-2.6,0.2-3.7,0.7c-1.1,0.5-2.1,1.2-2.9,2c-0.8,0.9-1.4,1.9-1.9,3c-0.5,1.2-0.7,2.4-0.7,3.7v0.1
			c0,1.3,0.2,2.5,0.7,3.7c0.5,1.2,1.1,2.2,1.9,3.1c0.8,0.9,1.8,1.6,2.9,2.1C224.4,50.2,225.6,50.5,227,50.5z"/>
		<path class="st0" d="M267.4,56.7c-2.4,0-4.6-0.4-6.5-1.2c-2-0.8-3.7-1.9-5.1-3.3c-1.4-1.4-2.5-3.1-3.3-5s-1.2-4-1.2-6.3l0,0
			c0-2.2,0.4-4.2,1.2-6.1s1.9-3.6,3.3-5c1.4-1.4,3.1-2.6,5.1-3.4c1.9-0.8,4.1-1.2,6.4-1.2c1.4,0,2.6,0.1,3.7,0.3
			c1.1,0.2,2.2,0.5,3.1,0.8c1,0.3,1.9,0.8,2.7,1.3c0.8,0.5,1.7,1.1,2.4,1.8l-4.2,5.1c-0.6-0.5-1.2-0.9-1.7-1.3
			c-0.6-0.4-1.2-0.7-1.8-1c-0.6-0.3-1.3-0.5-2-0.6s-1.5-0.2-2.4-0.2c-1.2,0-2.4,0.3-3.4,0.8c-1.1,0.5-2,1.2-2.8,2.1s-1.4,1.9-1.9,3
			c-0.5,1.2-0.7,2.4-0.7,3.7v0.1c0,1.4,0.2,2.7,0.7,3.9s1.1,2.2,1.9,3.1c0.8,0.9,1.8,1.6,2.9,2c1.1,0.5,2.4,0.7,3.7,0.7
			c2.5,0,4.6-0.6,6.3-1.8v-4.4H267v-5.8h13.3v13.3c-1.6,1.3-3.4,2.5-5.6,3.4C272.6,56.2,270.1,56.7,267.4,56.7z"/>
		<path class="st0" d="M290.2,25.1h7v31.6h-7V25.1z"/>
		<polygon class="st0" points="44.5,56.7 58.8,56.7 65.6,56.7 65.6,49.8 65.6,25.1 58.8,25.1 58.8,49.8 44.5,49.8 44.5,25.1 
			37.7,25.1 37.7,49.8 37.7,56.7 		"/>
		<path class="st0" d="M335.3,42.8L335.3,42.8V31.9v-6.8h-6.8h-14.3h-6.8v6.8v10.9l0,0v6.8l0,0v7.1h6.8v-7.1h14.3v7.1h6.8v-7.1l0,0
			V42.8z M314.2,42.8V31.9h14.3v10.9H314.2z"/>
	</g>
</g>
</svg>
