<?xml version="1.0" encoding="utf-8"?>
<!-- Generator: Adobe Illustrator 21.0.2, SVG Export Plug-In . SVG Version: 6.00 Build 0)  -->
<svg version="1.1" id="symbol-full" xmlns="http://www.w3.org/2000/svg" xmlns:xlink="http://www.w3.org/1999/xlink" x="0px"
	 y="0px" viewBox="0 0 920.6 758.1" style="enable-background:new 0 0 920.6 758.1;" xml:space="preserve">
<style type="text/css">
	.st0{fill:#EAEAEA;}
	.st1{fill:#005C99;}
	.st2{fill:#3E86C6;}
	.st3{fill:#1D6AAF;}
	.st4{fill:#104674;}
</style>
<g id="svg-full">
	<path id="let_x5F_m" class="st0" d="M288.2,240.7h94.4l76.9,124.8l76.9-124.8h94.4V563H542V377.9l-82.2,126.2h-1.8l-81.7-125.3V563
		h-88V240.7z"/>
	<path id="let_x5F_i" class="st0" d="M415.1,241.7h89.8V564h-89.8V241.7z"/>
	<path id="let_x5F_n" class="st0" d="M308.2,241.7h83.5l132.9,170.4V241.7h88v322.4h-78.5l-138-176.9v176.9h-88V241.7z"/>
	<polygon id="trg_x5F_base" class="st1" points="460.3,0 920.6,758.1 0,758.1 	"/>
	<polygon id="trg_x5F_inf" class="st2" points="460.3,352 920.6,758.1 0,758.1 	"/>
	<polygon id="trg_x5F_right" class="st3" points="460.3,0 460.3,352 920.6,758.1 	"/>
	<polygon id="trg_x5F_left" class="st4" points="460.3,0 0,758.1 460.3,352 	"/>
</g>
</svg>
